<svg width="210" height="210" viewBox="0 0 210 210" fill="none" xmlns="http://www.w3.org/2000/svg">
<circle cx="105" cy="105" r="104.5" stroke="#FF3311"/>
<circle cx="105" cy="105" r="99" fill="#FF3311"/>
<path d="M88.048 38.32C88.048 38.8267 88.1213 39.18 88.268 39.38C88.428 39.5667 88.7146 39.66 89.128 39.66C89.408 39.66 89.648 39.64 89.848 39.6C90.0613 39.56 90.308 39.4867 90.588 39.38L90.328 40.92C89.888 41.1067 89.3946 41.2 88.848 41.2C88.0346 41.2 87.428 40.98 87.028 40.54C86.6413 40.1 86.448 39.4267 86.448 38.52V26.4H88.048V38.32ZM93.4413 29.08C93.0813 29.08 92.7879 28.9733 92.5613 28.76C92.3479 28.5333 92.2413 28.24 92.2413 27.88C92.2413 27.52 92.3479 27.2333 92.5613 27.02C92.7879 26.7933 93.0813 26.68 93.4413 26.68C93.8013 26.68 94.0879 26.7933 94.3013 27.02C94.5279 27.2333 94.6413 27.52 94.6413 27.88C94.6413 28.24 94.5279 28.5333 94.3013 28.76C94.0879 28.9733 93.8013 29.08 93.4413 29.08ZM94.2413 41H92.6413V31H94.2413V41ZM106.154 39.84C106.42 39.84 106.687 39.8067 106.954 39.74L106.854 41C106.48 41.1333 106.08 41.2 105.654 41.2C105.134 41.2 104.72 41.0867 104.414 40.86C104.12 40.6333 103.934 40.2533 103.854 39.72C103.547 40.1867 103.094 40.5533 102.494 40.82C101.907 41.0733 101.287 41.2 100.634 41.2C99.6471 41.2 98.8338 40.9733 98.1938 40.52C97.5538 40.0533 97.2338 39.3867 97.2338 38.52C97.2338 37.76 97.5671 37.1067 98.2338 36.56C98.9004 36 99.8671 35.6133 101.134 35.4L103.794 34.96V34.4C103.794 33.7333 103.587 33.2 103.174 32.8C102.76 32.4 102.187 32.2 101.454 32.2C100.787 32.2 100.207 32.36 99.7138 32.68C99.2338 33 98.8604 33.4733 98.5938 34.1L97.4137 33.24C97.6804 32.4933 98.1738 31.9 98.8938 31.46C99.6271 31.02 100.48 30.8 101.454 30.8C102.64 30.8 103.594 31.0867 104.314 31.66C105.034 32.2333 105.394 33.08 105.394 34.2V39.12C105.394 39.36 105.454 39.54 105.574 39.66C105.694 39.78 105.887 39.84 106.154 39.84ZM100.714 39.8C101.554 39.8 102.274 39.6 102.874 39.2C103.487 38.8 103.794 38.28 103.794 37.64V36.26L101.554 36.68C100.66 36.84 99.9938 37.0733 99.5538 37.38C99.1138 37.6733 98.8938 38.0533 98.8938 38.52C98.8938 38.9333 99.0538 39.2533 99.3738 39.48C99.6938 39.6933 100.14 39.8 100.714 39.8ZM99.6738 27.08C100.02 27.08 100.294 27.1867 100.494 27.4C100.707 27.6 100.814 27.8733 100.814 28.22C100.814 28.5533 100.707 28.8267 100.494 29.04C100.294 29.2533 100.02 29.36 99.6738 29.36C99.3404 29.36 99.0671 29.2533 98.8538 29.04C98.6404 28.8267 98.5338 28.5533 98.5338 28.22C98.5338 27.8733 98.6404 27.6 98.8538 27.4C99.0671 27.1867 99.3404 27.08 99.6738 27.08ZM103.554 27.08C103.9 27.08 104.174 27.1867 104.374 27.4C104.587 27.6 104.694 27.8733 104.694 28.22C104.694 28.5533 104.587 28.8267 104.374 29.04C104.174 29.2533 103.9 29.36 103.554 29.36C103.22 29.36 102.947 29.2533 102.734 29.04C102.52 28.8267 102.414 28.5533 102.414 28.22C102.414 27.8733 102.52 27.6 102.734 27.4C102.947 27.1867 103.22 27.08 103.554 27.08ZM114.202 30.8C115.602 30.8 116.709 31.2667 117.522 32.2C118.349 33.12 118.762 34.3867 118.762 36C118.762 37.6133 118.349 38.8867 117.522 39.82C116.709 40.74 115.602 41.2 114.202 41.2C113.429 41.2 112.735 41.0267 112.122 40.68C111.522 40.32 111.075 39.8467 110.782 39.26L110.682 41H109.282V26.4H110.882V32.56C111.202 32.0267 111.649 31.6 112.222 31.28C112.809 30.96 113.469 30.8 114.202 30.8ZM114.022 39.8C114.995 39.8 115.762 39.46 116.322 38.78C116.882 38.0867 117.162 37.16 117.162 36C117.162 34.84 116.882 33.92 116.322 33.24C115.762 32.5467 114.995 32.2 114.022 32.2C113.062 32.2 112.295 32.5333 111.722 33.2C111.162 33.8667 110.882 34.76 110.882 35.88V36.12C110.882 37.24 111.162 38.1333 111.722 38.8C112.295 39.4667 113.062 39.8 114.022 39.8ZM122.68 29.08C122.32 29.08 122.026 28.9733 121.8 28.76C121.586 28.5333 121.48 28.24 121.48 27.88C121.48 27.52 121.586 27.2333 121.8 27.02C122.026 26.7933 122.32 26.68 122.68 26.68C123.04 26.68 123.326 26.7933 123.54 27.02C123.766 27.2333 123.88 27.52 123.88 27.88C123.88 28.24 123.766 28.5333 123.54 28.76C123.326 28.9733 123.04 29.08 122.68 29.08ZM123.48 41H121.88V31H123.48V41ZM83.6972 53.8C84.6972 53.8 85.5372 54.0333 86.2172 54.5C86.9105 54.9533 87.4505 55.6067 87.8372 56.46L86.3172 57.18C85.8905 55.86 85.0039 55.2 83.6572 55.2C82.6572 55.2 81.8705 55.54 81.2972 56.22C80.7372 56.8867 80.4572 57.8133 80.4572 59C80.4572 60.1867 80.7372 61.12 81.2972 61.8C81.8705 62.4667 82.6572 62.8 83.6572 62.8C84.4305 62.8 85.0505 62.6267 85.5172 62.28C85.9972 61.92 86.3105 61.4067 86.4572 60.74L87.9372 61.26C87.5905 62.1933 87.0572 62.92 86.3372 63.44C85.6172 63.9467 84.7372 64.2 83.6972 64.2C82.1905 64.2 81.0039 63.74 80.1372 62.82C79.2839 61.9 78.8572 60.6267 78.8572 59C78.8572 57.3733 79.2839 56.1 80.1372 55.18C81.0039 54.26 82.1905 53.8 83.6972 53.8ZM95.6263 53.8C96.7596 53.8 97.6929 54.1267 98.4263 54.78C99.1596 55.4333 99.5263 56.3733 99.5263 57.6V64H97.9263V58.16C97.9263 57.12 97.6996 56.3667 97.2463 55.9C96.8063 55.4333 96.2129 55.2 95.4663 55.2C94.9463 55.2 94.4463 55.32 93.9663 55.56C93.4996 55.8 93.1129 56.1867 92.8063 56.72C92.5129 57.24 92.3663 57.9 92.3663 58.7V64H90.7663V49.4H92.3663V55.5C92.6996 54.9267 93.1463 54.5 93.7063 54.22C94.2796 53.94 94.9196 53.8 95.6263 53.8ZM111.729 58.48C111.729 58.8533 111.702 59.2267 111.649 59.6H104.109C104.202 60.6133 104.536 61.4 105.109 61.96C105.696 62.52 106.449 62.8 107.369 62.8C108.102 62.8 108.709 62.6733 109.189 62.42C109.682 62.1667 110.016 61.8 110.189 61.32L111.529 62.02C111.129 62.7267 110.596 63.2667 109.929 63.64C109.262 64.0133 108.409 64.2 107.369 64.2C105.862 64.2 104.676 63.74 103.809 62.82C102.956 61.9 102.529 60.6267 102.529 59C102.529 57.3733 102.936 56.1 103.749 55.18C104.576 54.26 105.742 53.8 107.249 53.8C108.182 53.8 108.989 54.0067 109.669 54.42C110.349 54.8333 110.862 55.3933 111.209 56.1C111.556 56.8067 111.729 57.6 111.729 58.48ZM107.249 55.2C106.369 55.2 105.656 55.46 105.109 55.98C104.576 56.5 104.249 57.2333 104.129 58.18H110.189C110.082 57.2467 109.776 56.52 109.269 56C108.762 55.4667 108.089 55.2 107.249 55.2ZM108.029 52.34H106.729L104.769 49H106.509L108.029 52.34ZM119.49 53.8C119.97 53.8 120.337 53.8667 120.59 54L120.27 55.56C119.95 55.3867 119.53 55.3 119.01 55.3C118.583 55.3 118.163 55.4267 117.75 55.68C117.35 55.92 117.017 56.2933 116.75 56.8C116.497 57.2933 116.37 57.8933 116.37 58.6V64H114.77V54H116.07L116.29 55.64C116.85 54.4133 117.917 53.8 119.49 53.8ZM131.202 58.48C131.202 58.8533 131.175 59.2267 131.122 59.6H123.582C123.675 60.6133 124.008 61.4 124.582 61.96C125.168 62.52 125.922 62.8 126.842 62.8C127.575 62.8 128.182 62.6733 128.662 62.42C129.155 62.1667 129.488 61.8 129.662 61.32L131.002 62.02C130.602 62.7267 130.068 63.2667 129.402 63.64C128.735 64.0133 127.882 64.2 126.842 64.2C125.335 64.2 124.148 63.74 123.282 62.82C122.428 61.9 122.002 60.6267 122.002 59C122.002 57.3733 122.408 56.1 123.222 55.18C124.048 54.26 125.215 53.8 126.722 53.8C127.655 53.8 128.462 54.0067 129.142 54.42C129.822 54.8333 130.335 55.3933 130.682 56.1C131.028 56.8067 131.202 57.6 131.202 58.48ZM126.722 55.2C125.842 55.2 125.128 55.46 124.582 55.98C124.048 56.5 123.722 57.2333 123.602 58.18H129.662C129.555 57.2467 129.248 56.52 128.742 56C128.235 55.4667 127.562 55.2 126.722 55.2Z" fill="white"/>
<path d="M55.0493 108.36C55.0493 103.507 56.0993 99.19 58.1993 95.41C60.2993 91.5833 63.2159 88.62 66.9493 86.52C70.7293 84.3733 74.9993 83.3 79.7593 83.3C85.5926 83.3 90.5859 84.84 94.7393 87.92C98.8926 91 101.669 95.2 103.069 100.52H89.9093C88.9293 98.4667 87.5293 96.9033 85.7093 95.83C83.9359 94.7567 81.9059 94.22 79.6193 94.22C75.9326 94.22 72.9459 95.5033 70.6593 98.07C68.3726 100.637 67.2293 104.067 67.2293 108.36C67.2293 112.653 68.3726 116.083 70.6593 118.65C72.9459 121.217 75.9326 122.5 79.6193 122.5C81.9059 122.5 83.9359 121.963 85.7093 120.89C87.5293 119.817 88.9293 118.253 89.9093 116.2H103.069C101.669 121.52 98.8926 125.72 94.7393 128.8C90.5859 131.833 85.5926 133.35 79.7593 133.35C74.9993 133.35 70.7293 132.3 66.9493 130.2C63.2159 128.053 60.2993 125.09 58.1993 121.31C56.0993 117.53 55.0493 113.213 55.0493 108.36ZM152.96 83.86V133H140.99V112.77H122.37V133H110.4V83.86H122.37V103.11H140.99V83.86H152.96Z" fill="white"/>
<path d="M90.162 150.8C91.162 150.8 92.002 151.033 92.682 151.5C93.3754 151.953 93.9154 152.607 94.302 153.46L92.782 154.18C92.3554 152.86 91.4687 152.2 90.122 152.2C89.122 152.2 88.3354 152.54 87.762 153.22C87.202 153.887 86.922 154.813 86.922 156C86.922 157.187 87.202 158.12 87.762 158.8C88.3354 159.467 89.122 159.8 90.122 159.8C90.8954 159.8 91.5154 159.627 91.982 159.28C92.462 158.92 92.7754 158.407 92.922 157.74L94.402 158.26C94.0554 159.193 93.522 159.92 92.802 160.44C92.082 160.947 91.202 161.2 90.162 161.2C88.6554 161.2 87.4687 160.74 86.602 159.82C85.7487 158.9 85.322 157.627 85.322 156C85.322 154.373 85.7487 153.1 86.602 152.18C87.4687 151.26 88.6554 150.8 90.162 150.8ZM105.431 159.84C105.698 159.84 105.964 159.807 106.231 159.74L106.131 161C105.758 161.133 105.358 161.2 104.931 161.2C104.411 161.2 103.998 161.087 103.691 160.86C103.398 160.633 103.211 160.253 103.131 159.72C102.824 160.187 102.371 160.553 101.771 160.82C101.184 161.073 100.564 161.2 99.9111 161.2C98.9244 161.2 98.1111 160.973 97.4711 160.52C96.8311 160.053 96.5111 159.387 96.5111 158.52C96.5111 157.76 96.8444 157.107 97.5111 156.56C98.1778 156 99.1444 155.613 100.411 155.4L103.071 154.96V154.4C103.071 153.733 102.864 153.2 102.451 152.8C102.038 152.4 101.464 152.2 100.731 152.2C100.064 152.2 99.4844 152.36 98.9911 152.68C98.5111 153 98.1378 153.473 97.8711 154.1L96.6911 153.24C96.9578 152.493 97.4511 151.9 98.1711 151.46C98.9044 151.02 99.7578 150.8 100.731 150.8C101.918 150.8 102.871 151.087 103.591 151.66C104.311 152.233 104.671 153.08 104.671 154.2V159.12C104.671 159.36 104.731 159.54 104.851 159.66C104.971 159.78 105.164 159.84 105.431 159.84ZM99.9911 159.8C100.831 159.8 101.551 159.6 102.151 159.2C102.764 158.8 103.071 158.28 103.071 157.64V156.26L100.831 156.68C99.9378 156.84 99.2711 157.073 98.8311 157.38C98.3911 157.673 98.1711 158.053 98.1711 158.52C98.1711 158.933 98.3311 159.253 98.6511 159.48C98.9711 159.693 99.4178 159.8 99.9911 159.8ZM113.279 150.8C113.759 150.8 114.126 150.867 114.379 151L114.059 152.56C113.739 152.387 113.319 152.3 112.799 152.3C112.373 152.3 111.953 152.427 111.539 152.68C111.139 152.92 110.806 153.293 110.539 153.8C110.286 154.293 110.159 154.893 110.159 155.6V161H108.559V151H109.859L110.079 152.64C110.639 151.413 111.706 150.8 113.279 150.8ZM124.65 159.84C124.917 159.84 125.183 159.807 125.45 159.74L125.35 161C124.977 161.133 124.577 161.2 124.15 161.2C123.63 161.2 123.217 161.087 122.91 160.86C122.617 160.633 122.43 160.253 122.35 159.72C122.043 160.187 121.59 160.553 120.99 160.82C120.403 161.073 119.783 161.2 119.13 161.2C118.143 161.2 117.33 160.973 116.69 160.52C116.05 160.053 115.73 159.387 115.73 158.52C115.73 157.76 116.063 157.107 116.73 156.56C117.397 156 118.363 155.613 119.63 155.4L122.29 154.96V154.4C122.29 153.733 122.083 153.2 121.67 152.8C121.257 152.4 120.683 152.2 119.95 152.2C119.283 152.2 118.703 152.36 118.21 152.68C117.73 153 117.357 153.473 117.09 154.1L115.91 153.24C116.177 152.493 116.67 151.9 117.39 151.46C118.123 151.02 118.977 150.8 119.95 150.8C121.137 150.8 122.09 151.087 122.81 151.66C123.53 152.233 123.89 153.08 123.89 154.2V159.12C123.89 159.36 123.95 159.54 124.07 159.66C124.19 159.78 124.383 159.84 124.65 159.84ZM119.21 159.8C120.05 159.8 120.77 159.6 121.37 159.2C121.983 158.8 122.29 158.28 122.29 157.64V156.26L120.05 156.68C119.157 156.84 118.49 157.073 118.05 157.38C117.61 157.673 117.39 158.053 117.39 158.52C117.39 158.933 117.55 159.253 117.87 159.48C118.19 159.693 118.637 159.8 119.21 159.8ZM89.498 173.8C90.498 173.8 91.338 174.033 92.018 174.5C92.7113 174.953 93.2513 175.607 93.638 176.46L92.118 177.18C91.6913 175.86 90.8046 175.2 89.458 175.2C88.458 175.2 87.6713 175.54 87.098 176.22C86.538 176.887 86.258 177.813 86.258 179C86.258 180.187 86.538 181.12 87.098 181.8C87.6713 182.467 88.458 182.8 89.458 182.8C90.2313 182.8 90.8513 182.627 91.318 182.28C91.798 181.92 92.1113 181.407 92.258 180.74L93.738 181.26C93.3913 182.193 92.858 182.92 92.138 183.44C91.418 183.947 90.538 184.2 89.498 184.2C87.9913 184.2 86.8046 183.74 85.938 182.82C85.0846 181.9 84.658 180.627 84.658 179C84.658 177.373 85.0846 176.1 85.938 175.18C86.8046 174.26 87.9913 173.8 89.498 173.8ZM101.427 173.8C102.56 173.8 103.494 174.127 104.227 174.78C104.96 175.433 105.327 176.373 105.327 177.6V184H103.727V178.16C103.727 177.12 103.5 176.367 103.047 175.9C102.607 175.433 102.014 175.2 101.267 175.2C100.747 175.2 100.247 175.32 99.767 175.56C99.3004 175.8 98.9137 176.187 98.607 176.72C98.3137 177.24 98.167 177.9 98.167 178.7V184H96.567V169.4H98.167V175.5C98.5004 174.927 98.947 174.5 99.507 174.22C100.08 173.94 100.72 173.8 101.427 173.8ZM117.15 182.84C117.417 182.84 117.683 182.807 117.95 182.74L117.85 184C117.477 184.133 117.077 184.2 116.65 184.2C116.13 184.2 115.717 184.087 115.41 183.86C115.117 183.633 114.93 183.253 114.85 182.72C114.543 183.187 114.09 183.553 113.49 183.82C112.903 184.073 112.283 184.2 111.63 184.2C110.643 184.2 109.83 183.973 109.19 183.52C108.55 183.053 108.23 182.387 108.23 181.52C108.23 180.76 108.563 180.107 109.23 179.56C109.897 179 110.863 178.613 112.13 178.4L114.79 177.96V177.4C114.79 176.733 114.583 176.2 114.17 175.8C113.757 175.4 113.183 175.2 112.45 175.2C111.783 175.2 111.203 175.36 110.71 175.68C110.23 176 109.857 176.473 109.59 177.1L108.41 176.24C108.677 175.493 109.17 174.9 109.89 174.46C110.623 174.02 111.477 173.8 112.45 173.8C113.637 173.8 114.59 174.087 115.31 174.66C116.03 175.233 116.39 176.08 116.39 177.2V182.12C116.39 182.36 116.45 182.54 116.57 182.66C116.69 182.78 116.883 182.84 117.15 182.84ZM111.71 182.8C112.55 182.8 113.27 182.6 113.87 182.2C114.483 181.8 114.79 181.28 114.79 180.64V179.26L112.55 179.68C111.657 179.84 110.99 180.073 110.55 180.38C110.11 180.673 109.89 181.053 109.89 181.52C109.89 181.933 110.05 182.253 110.37 182.48C110.69 182.693 111.137 182.8 111.71 182.8ZM124.998 173.8C125.478 173.8 125.845 173.867 126.098 174L125.778 175.56C125.458 175.387 125.038 175.3 124.518 175.3C124.091 175.3 123.671 175.427 123.258 175.68C122.858 175.92 122.525 176.293 122.258 176.8C122.005 177.293 121.878 177.893 121.878 178.6V184H120.278V174H121.578L121.798 175.64C122.358 174.413 123.425 173.8 124.998 173.8Z" fill="white"/>
</svg>
